<?xml version="1.0" standalone="no"?>
<svg xmlns="http://www.w3.org/2000/svg" style="display: none;">

    <symbol id="Minesweeper_0" viewBox="0 0 76 76">
        <polygon fill="#B9B9B9" points="75.001,75.001 1,75.001 1,1 75.001,1 75.001,75.001  "/>
        <path fill="#757575"
              d="M75.991,0C75.996,0,76,0.004,76,0.009V75.99c0,0.006-0.004,0.01-0.009,0.01H0.009   C0.004,76,0,75.996,0,75.99V0.009C0,0.004,0.004,0,0.009,0H75.991 M74,2H2v72h72V2L74,2z"/>
    </symbol>

    <symbol id="Minesweeper_1" x="0px" y="0px" width="76px" height="76px" viewBox="0 0 76 76" enable-background="new 0 0 76 76" xml:space="preserve">
  <g>
	<polygon fill="#B9B9B9" points="75.001,75.001 1,75.001 1,1 75.001,1  "/>
	<path fill="#757575" d="M75.991,0C75.996,0,76,0.004,76,0.009V75.99c0,0.006-0.004,0.01-0.009,0.01H0.009   C0.004,76,0,75.996,0,75.99V0.009C0,0.004,0.004,0,0.009,0H75.991 M74,2H2v72h72V2L74,2z"/>
</g>
<g>
	<polygon fill="#0000FF" points="40.857,8.928 18,26.071 18,31.785 32.286,31.785 32.286,54.644 18,54.644 18,66.071 58,66.071    58,54.644 46.571,54.644 46.571,8.928  "/>
</g> 
  </symbol>
  
    <symbol id="Minesweeper_2" x="0px" y="0px" width="76px" height="76px" viewBox="0 0 76 76" enable-background="new 0 0 76 76" xml:space="preserve">
    <g >
	<polygon fill="#B9B9B9" points="75.001,75.001 1,75.001 1,1 75.001,1  "/>
	<path fill="#757575" d="M75.991,0C75.996,0,76,0.004,76,0.009V75.99c0,0.006-0.004,0.01-0.009,0.01H0.009   C0.004,76,0,75.996,0,75.99V0.009C0,0.004,0.004,0,0.009,0H75.991 M74,2H2v72h72V2L74,2z"/>
</g>
<path fill="#008200" d="M51.256,26.134v-4.545c0-1.545-1.293-2.796-2.892-2.796H27.393c-1.593,0-2.892,1.251-2.892,2.796v4.545  H8.593v-5.942C8.593,14.011,13.778,9,20.163,9h35.433c6.388,0,11.569,5.011,11.569,11.191c0,4.064,1.287,8.448-2.521,11.417  c-2.649,2.062-5.948,3.822-8.757,5.743c-6.993,4.777-14.083,9.431-21.093,14.188c-0.91,0.621-3.707,3.276-4.87,3.276  c0.012,0,37.602,0,37.602,0V66H8.774c0-4.529-1.605-9.863,2.609-13.253c2.949-2.372,6.773-4.315,9.932-6.502  c8-5.557,16.259-10.779,24.287-16.306C46.188,29.535,51.256,26.874,51.256,26.134z"/>
  </symbol>
  
  <symbol id="Minesweeper_3" x="0px" y="0px" width="76px" height="76px" viewBox="0 0 76 76" enable-background="new 0 0 76 76" xml:space="preserve">
    <g >
	<polygon fill="#B9B9B9" points="75.001,75.001 1,75.001 1,1 75.001,1  "/>
	<path fill="#757575" d="M75.991,0C75.996,0,76,0.004,76,0.009V75.99c0,0.006-0.004,0.01-0.009,0.01H0.009   C0.004,76,0,75.996,0,75.99V0.009C0,0.004,0.004,0,0.009,0H75.991 M74,2H2v72h72V2L74,2z"/>
</g>
<path fill="#FF0000" d="M66.322,20.4c0-6.295-5.104-11.4-11.4-11.4H9.678v10.688H48.51c1.575,0,2.85,1.275,2.85,2.85v6.413  c0,1.569-1.274,2.85-2.85,2.85H26.778v12.825H48.51c1.575,0,2.85,1.274,2.85,2.85v6.413c0,1.569-1.274,2.85-2.85,2.85H9.678V66  h45.244c6.296,0,11.4-5.11,11.4-11.4V43.912c0-2.376-0.729-4.586-1.977-6.412c1.247-1.832,1.977-4.036,1.977-6.413V20.4z"/> 
  </symbol>
  
    <symbol id="Minesweeper_4"  x="0px" y="0px" width="76px" height="76px" viewBox="0 0 76 76" enable-background="new 0 0 76 76" xml:space="preserve">
    <g >
	<polygon fill="#B9B9B9" points="75.001,75.001 1,75.001 1,1 75.001,1  "/>
	<path fill="#757575" d="M75.991,0C75.996,0,76,0.004,76,0.009V75.99c0,0.006-0.004,0.01-0.009,0.01H0.009   C0.004,76,0,75.996,0,75.99V0.009C0,0.004,0.004,0,0.009,0H75.991 M74,2H2v72h72V2L74,2z"/>
</g>
<polygon fill="#000084" points="25.8,9 6.922,42.765 47.584,42.765 47.584,66 63.559,65.637 63.559,42.765 69.078,42.765   69.078,31.873 63.559,31.873 63.559,9 47.584,9 47.584,32.236 29.192,32.236 41.774,9 "/>
  </symbol>
  
  <symbol id="Minesweeper_5" x="0px" y="0px" width="76px" height="76px" viewBox="0 0 76 76" enable-background="new 0 0 76 76" xml:space="preserve">
    <g>
	<polygon fill="#B9B9B9" points="75.001,75.001 1,75.001 1,1 75.001,1  "/>
	<path fill="#757575" d="M75.991,0C75.996,0,76,0.004,76,0.009V75.99c0,0.006-0.004,0.01-0.009,0.01H0.009   C0.004,76,0,75.996,0,75.99V0.009C0,0.004,0.004,0,0.009,0H75.991 M74,2H2v72h72V2L74,2z"/>
</g>
<path fill="#840000" d="M60.78,32.065c1.765,0.757,3.006,1.726,3.869,2.922c1.324,1.837,1.736,4.211,1.736,7.139  c0,0.012,0,10.689,0,10.689c0,6.291-2.494,12.48-11.401,13.182H9.497V54.953h39.074c1.576,0,2.851-1.279,2.851-2.85v-6.412  c0-1.57-1.274-2.852-2.851-2.852L9.497,42.852V9.001l57.006,0v11.396H26.031v11.668"/> 
  </symbol>
  
    <symbol id="Minesweeper_6"  x="0px" y="0px" width="76px" height="76px" viewBox="0 0 76 76" enable-background="new 0 0 76 76" xml:space="preserve">
    <g>
	<polygon fill="#B9B9B9" points="75.001,75.001 1,75.001 1,1 75.001,1  "/>
	<path fill="#757575" d="M75.991,0C75.996,0,76,0.004,76,0.009V75.99c0,0.006-0.004,0.01-0.009,0.01H0.009   C0.004,76,0,75.996,0,75.99V0.009C0,0.004,0.004,0,0.009,0H75.991 M74,2H2v72h72V2L74,2z"/>
</g>
<path fill="#008284" d="M66.856,23.967v-3.565c0-6.296-5.109-11.4-11.399-11.4H20.544c-6.29,0-11.4,5.104-11.4,11.4v34.197  c0,6.29,5.11,11.4,11.4,11.4h34.913c6.29,0,11.399-5.11,11.399-11.4V43.911c0-4.984-4.921-12.11-11.405-12.11H27.669  c-1.569,0-2.85-1.28-2.85-2.85v-6.412c0-1.575,1.28-2.851,2.85-2.851h20.663c1.569,0,2.85,1.275,2.85,2.851v1.005L66.856,23.967z   M25.531,47.474c0-1.569,1.28-2.85,2.851-2.85h20.662c1.57,0,2.851,1.28,2.851,2.85v6.412c0,1.57-1.28,2.851-2.851,2.851H28.382  c-1.57,0-2.851-1.28-2.851-2.851V47.474z"/>
  </symbol>
  
  <symbol id="Minesweeper_7" x="0px" y="0px" width="76px" height="76px" viewBox="0 0 76 76" enable-background="new 0 0 76 76" xml:space="preserve">
    <g>
	<polygon fill="#B9B9B9" points="75.001,75.001 1,75.001 1,1 75.001,1  "/>
	<path fill="#757575" d="M75.991,0C75.996,0,76,0.004,76,0.009V75.99c0,0.006-0.004,0.01-0.009,0.01H0.009   C0.004,76,0,75.996,0,75.99V0.009C0,0.004,0.004,0,0.009,0H75.991 M74,2H2v72h72V2L74,2z"/>
</g>
<polygon fill="#840084" points="10.363,9.001 10.363,21.783 44.834,21.78 10.018,65.999 30.464,65.999 65.291,21.78 65.982,9.001   "/>
  </symbol>
  
    <symbol id="Minesweeper_8" x="0px" y="0px" width="76px" height="76px" viewBox="0 0 76 76" enable-background="new 0 0 76 76" xml:space="preserve">
    <g>
	<polygon fill="#B9B9B9" points="75.001,75.001 1,75.001 1,1 75.001,1  "/>
	<path fill="#757575" d="M75.991,0C75.996,0,76,0.004,76,0.009V75.99c0,0.006-0.004,0.01-0.009,0.01H0.009   C0.004,76,0,75.996,0,75.99V0.009C0,0.004,0.004,0,0.009,0H75.991 M74,2H2v72h72V2L74,2z"/>
</g>
<path fill="#757575" d="M66.856,31.087c0,2.377-0.729,4.581-1.977,6.413c1.247,1.826,1.977,4.036,1.977,6.412V54.6  c0,6.29-5.104,11.4-11.4,11.4H20.544c-6.29,0-11.4-5.11-11.4-11.4V43.912c0-2.376,0.729-4.586,1.982-6.412  c-1.252-1.832-1.982-4.036-1.982-6.413V20.4c0-6.295,5.11-11.4,11.4-11.4h34.912c6.296,0,11.4,5.104,11.4,11.4V31.087z   M51.182,22.538c0-1.575-1.275-2.85-2.851-2.85H27.669c-1.57,0-2.851,1.275-2.851,2.85v6.413c0,1.569,1.28,2.85,2.851,2.85h20.662  c1.575,0,2.851-1.28,2.851-2.85V22.538z M51.182,46.05c0-1.575-1.275-2.85-2.851-2.85H27.669c-1.57,0-2.851,1.274-2.851,2.85v6.413  c0,1.569,1.28,2.85,2.851,2.85h20.662c1.575,0,2.851-1.28,2.851-2.85V46.05z"/> 
  </symbol>

    <symbol id="Minesweeper_flag" viewBox="0 0 76 76">
        <g>
            <g>
                <path id="rect1313_65_" fill="#FDFCFD"
                      d="M0.009,0h75.982C75.996,0,76,0.004,76,0.009V75.99c0,0.006-0.004,0.01-0.009,0.01H0.009    C0.004,76,0,75.996,0,75.99V0.009C0,0.004,0.004,0,0.009,0z"/>
                <path id="path1341_65_" fill="#757575"
                      d="M75.99,0C75.995,0,76,0.005,76,0.01v75.981C76,75.996,75.995,76,75.99,76H0.009    C0.004,76,0,75.996,0,75.991L75.99,0z"/>
                <polygon id="rect1311_65_" fill="#B9B9B9"
                         points="8.508,8.5 67.492,8.5 67.5,8.508 67.5,67.491 67.492,67.5 8.508,67.5     8.5,67.491 8.5,8.508   "/>
            </g>
            <g>
                <polygon points="35.999,55.5 35.999,16.5 40,16.5 40,55.5 35.999,55.5   "/>
                <polygon fill="#FF0000" points="40,13.875 19.375,27 40,40.125   "/>
                <rect x="28.571" y="51.625" width="18.857" height="5.5"/>
                <rect x="20.222" y="56.459" width="35.555" height="7.041"/>
            </g>
        </g>
    </symbol>
    <symbol id="Minesweeper_mine" width="100" height="100" viewBox="0 0 100 100" preserveAspectRatio="xMidYMid meet">
        <rect height="100%" width="100%" fill="#F00" fill-opacity="100"/>
        <g fill="none">
            <path d="M100 83h9v17h-9z"/>
            <path d="M77.8 83h26.6v7H77.8z"/>
        </g>
        <path d="M19 18.7h7.4v7H19zM19 73h7.4v7H19zm55 .5h7.3v7H74zm0-54.7h7.3v7H74zM6.5 46.4h13v7.3h-13zm74-.4h13v7.2h-13zM46 5h8.4v13.5H46zm-.4 75.3H54V94h-8.4z"/>
        <path d="M33 19v6.8h-6.6V33h-7l.3 33.2 6.4.4 1 6.4 6.2-.4V80h34l.5-7 6.6.3v-7h6v-34h-6V26h-7v-7z" stroke="#000"/>
        <path fill="#fff" d="M32.7 33h14.5v14H32.7z"/>
        <path d="M56.6 31.3H74V46H56.7z"/>
</symbol>

    <symbol id="Minesweeper_questionmark" x="0px" y="0px" width="76px" height="76px" viewBox="0 0 76 76" enable-background="new 0 0 76 76" xml:space="preserve">
    <g>
	<g>
		<path id="rect1313_65_" fill="#FDFCFD" d="M0.009,0h75.982C75.996,0,76,0.004,76,0.009V75.99c0,0.006-0.004,0.01-0.009,0.01H0.009    C0.004,76,0,75.996,0,75.99V0.009C0,0.004,0.004,0,0.009,0z"/>
		<path id="path1341_65_" fill="#757575" d="M75.99,0C75.995,0,76,0.005,76,0.01v75.981C76,75.996,75.995,76,75.99,76H0.009    C0.004,76,0,75.996,0,75.991L75.99,0z"/>
		<polygon id="rect1311_65_" fill="#B9B9B9" points="8.508,8.5 67.492,8.5 67.5,8.508 67.5,67.491 67.492,67.5 8.508,67.5     8.5,67.491 8.5,8.508   "/>
	</g>
</g>
<g>
	<path d="M24.684,28.694c0-4.57,1.569-8.347,4.716-11.338c2.219-2.109,5.175-3.164,8.877-3.164c4.065,0,7.213,1.055,9.433,3.164   c2.4,2.285,3.606,5.186,3.606,8.701c0,2.991-1.109,5.537-3.329,7.646c-1.295,1.23-3.052,2.9-5.271,5.01   c-1.664,1.582-2.497,3.955-2.497,7.119h-4.993c0-3.864,0.647-6.765,1.942-8.701c0.924-1.406,2.678-3.337,5.271-5.801   c1.479-1.406,2.22-3.073,2.22-5.01c0-2.461-0.65-4.307-1.942-5.537c-1.109-1.055-2.681-1.582-4.716-1.582   c-1.665,0-3.052,0.527-4.161,1.582c-1.85,1.758-2.774,4.395-2.774,7.91H24.684z M34.671,53.479h6.104v6.328h-6.104V53.479z"/>
</g> 
  </symbol>
  
  <symbol id="Minesweeper_unopened_square" x="0px" y="0px" width="76px" height="76px" viewBox="0 0 76 76" enable-background="new 0 0 76 76" xml:space="preserve">
    <g>
	<g>
		<path id="rect1313_65_" fill="#FDFCFD" d="M0.009,0h75.982C75.996,0,76,0.004,76,0.009V75.99c0,0.006-0.004,0.01-0.009,0.01H0.009    C0.004,76,0,75.996,0,75.99V0.009C0,0.004,0.004,0,0.009,0z"/>
		<path id="path1341_65_" fill="#757575" d="M75.99,0C75.995,0,76,0.005,76,0.01v75.981C76,75.996,75.995,76,75.99,76H0.009    C0.004,76,0,75.996,0,75.991L75.99,0z"/>
		<polygon id="rect1311_65_" fill="#B9B9B9" points="8.508,8.5 67.492,8.5 67.5,8.508 67.5,67.491 67.492,67.5 8.508,67.5     8.5,67.491 8.5,8.508   "/>
	</g>
</g> 
  </symbol>
</svg>
